# xmcd
#
# Track frame offsets: 
#        225
#        8447
#        21577
#        35037
#        50145
#        63645
#        88467
#        105302
#        124772
#        138485
#        158995
#        175365
#
# Disc length: 2389 seconds
#
# Revision: 20
# Processed by: cddbd v1.5.2PL0 Copyright (c) Steve Scherf et al.
# Submitted via: ExactAudioCopy v1.3
#
DISCID=a8094f0c,a809520c,ac09520c
DTITLE=Blues Brothers - Briefcase Full of Blues
DYEAR=1978
DGENRE=Blues
TTITLE0=Opening: I Can't Turn You Loose
TTITLE1=Hey Bartender
TTITLE2=Messin' With The Kid
TTITLE3=(I Got Every Thing I Need) Almost
TTITLE4=Rubber Biscuit
TTITLE5=Shot Gun Blues
TTITLE6=Groove Me
TTITLE7=I Don't Know
TTITLE8=Soul Man
TTITLE9="B" Movie Box Car Blues
TTITLE10=Flip, Flop and Fly
TTITLE11=Closing: I Can't Turn You Loose
EXTD=YEAR: 1978
EXTT0=
EXTT1=
EXTT2=
EXTT3=
EXTT4=
EXTT5=
EXTT6=
EXTT7=
EXTT8=
EXTT9=
EXTT10=
EXTT11=
PLAYORDER=
